<svg width="79" height="79" viewBox="0 0 79 79" fill="none" xmlns="http://www.w3.org/2000/svg">
<circle cx="39.5" cy="39.5" r="39" stroke="#734C91"/>
<path fill-rule="evenodd" clip-rule="evenodd" d="M19 15C16.7909 15 15 16.7909 15 19V60C15 62.2091 16.7909 64 19 64H60C62.2091 64 64 62.2091 64 60V19C64 16.7909 62.2091 15 60 15H19ZM19.525 16H59.475C60.4099 16 61.3065 16.3714 61.9675 17.0324C62.6286 17.6935 63 18.5901 63 19.525V59.475C63 60.4099 62.6286 61.3065 61.9675 61.9675C61.3065 62.6286 60.4099 63 59.475 63H19.525C18.5901 63 17.6935 62.6286 17.0324 61.9675C16.3714 61.3065 16 60.4099 16 59.475V19.525C16 18.5901 16.3714 17.6935 17.0324 17.0324C17.6935 16.3714 18.5901 16 19.525 16ZM23.05 55.95H30.1V34.8H23.05V55.95ZM24.3231 29.938C24.9838 30.4037 25.767 30.6644 26.575 30.6875C27.6804 30.7001 28.7458 30.2746 29.5385 29.504C30.3311 28.7334 30.7864 27.6803 30.805 26.575C30.8047 25.7667 30.5662 24.9764 30.1192 24.3029C29.6723 23.6294 29.0369 23.1025 28.2922 22.7881C27.5476 22.4737 26.7268 22.3856 25.9324 22.535C25.1381 22.6844 24.4053 23.0646 23.8258 23.628C23.2462 24.1915 22.8456 24.9132 22.6739 25.7031C22.5022 26.4929 22.567 27.3159 22.8603 28.0691C23.1537 28.8223 23.6624 29.4723 24.3231 29.938ZM48.9 55.95H55.95L55.856 43.166C55.856 36.586 51.6025 34.565 47.96 34.565C46.7092 34.5243 45.4689 34.8054 44.3579 35.3815C43.2469 35.9575 42.3024 36.8093 41.615 37.855V34.8H34.8V55.95H41.85V44.9755C41.8383 44.8661 41.8383 44.7559 41.85 44.6465C41.8117 44.1093 41.8798 43.5697 42.0506 43.0589C42.2214 42.5481 42.4914 42.076 42.8452 41.6699C43.1989 41.2637 43.6294 40.9315 44.112 40.6922C44.5945 40.4529 45.1196 40.3113 45.657 40.2755C47.49 40.2755 48.9 41.474 48.9 44.811V55.95Z" fill="#734C91"/>
</svg>
