<svg width="977" height="366" viewBox="0 0 977 366" fill="none" xmlns="http://www.w3.org/2000/svg">
<path d="M0.0957045 368V0.499993H54.0957C74.5957 0.499993 91.679 4.99999 105.346 14C119.179 23 129.512 35.75 136.346 52.25C143.179 68.75 146.596 88.1667 146.596 110.5C146.596 132.833 143.012 152.083 135.846 168.25C128.679 184.417 118.179 197.083 104.346 206.25C90.679 215.25 73.929 220.167 54.0957 221V368H0.0957045ZM54.0957 166C63.5957 166 71.0957 164.167 76.5957 160.5C82.0957 156.667 86.0124 150.667 88.3457 142.5C90.8457 134.333 92.0957 123.833 92.0957 111C92.0957 98 90.8457 87.4166 88.3457 79.25C86.0124 71.0833 82.0124 65.0833 76.3457 61.25C70.8457 57.4167 63.429 55.5 54.0957 55.5V166ZM155.877 368V94.5H206.377V125C207.377 118.333 210.46 112.417 215.627 107.25C220.794 102.083 227.044 98 234.377 95C241.877 92 249.377 90.5 256.877 90.5V146.5C254.71 145.667 252.377 145.167 249.877 145C247.544 144.667 245.21 144.5 242.877 144.5C231.877 144.5 223.044 147.5 216.377 153.5C209.71 159.5 206.377 167.667 206.377 178V368H155.877ZM322.326 371.5C302.16 371.5 286.326 364.75 274.826 351.25C263.326 337.583 257.576 320.333 257.576 299.5V162.5C257.576 141.667 263.326 124.5 274.826 111C286.326 97.3333 302.16 90.5 322.326 90.5C342.326 90.5 358.076 97.3333 369.576 111C381.243 124.5 387.076 141.667 387.076 162.5V299.5C387.076 320.333 381.243 337.583 369.576 351.25C358.076 364.75 342.326 371.5 322.326 371.5ZM322.326 327.5C328.826 327.5 333.326 324.917 335.826 319.75C338.326 314.417 339.576 307.667 339.576 299.5V162.5C339.576 154.167 338.326 147.417 335.826 142.25C333.326 137.083 328.826 134.5 322.326 134.5C315.826 134.5 311.326 137.083 308.826 142.25C306.326 147.417 305.076 154.167 305.076 162.5V299.5C305.076 307.833 306.326 314.583 308.826 319.75C311.326 324.917 315.826 327.5 322.326 327.5ZM395.49 462C390.824 462 386.574 461.667 382.74 461C378.907 460.5 375.824 459.667 373.49 458.5V412C374.49 412.667 376.407 413.25 379.24 413.75C382.074 414.25 384.824 414.5 387.49 414.5C392.657 414.5 396.324 412.583 398.49 408.75C400.657 404.917 401.907 399.917 402.24 393.75C402.74 387.583 402.99 381.167 402.99 374.5V94.5H453.49V375C453.49 392.167 451.907 407.25 448.74 420.25C445.74 433.417 440.074 443.667 431.74 451C423.407 458.333 411.324 462 395.49 462ZM402.99 51V0.499993H453.49V51H402.99ZM530.975 372C510.808 372 494.891 365.083 483.225 351.25C471.725 337.25 465.975 320.167 465.975 300V162.5C465.975 141.167 471.725 123.833 483.225 110.5C494.725 97.1667 510.808 90.5 531.475 90.5C544.975 90.5 556.558 93.5833 566.225 99.75C576.058 105.917 583.558 114.333 588.725 125C593.891 135.5 596.475 147.5 596.475 161V240.5H512.975V300C512.975 306.833 514.475 313.167 517.475 319C520.641 324.667 525.308 327.5 531.475 327.5C537.975 327.5 542.558 324.833 545.225 319.5C548.058 314.167 549.475 307.667 549.475 300V270H596.475V301.5C596.475 322.667 590.725 339.75 579.225 352.75C567.891 365.583 551.808 372 530.975 372ZM512.975 201H549.475V162.5C549.475 155 548.141 148.5 545.475 143C542.975 137.333 538.308 134.5 531.475 134.5C525.141 134.5 520.475 137.417 517.475 143.25C514.475 148.917 512.975 155.333 512.975 162.5V201ZM668.365 371.75C646.199 371.75 629.865 364.833 619.365 351C609.032 337.167 603.865 317.917 603.865 293.25V169C603.865 144.167 609.032 124.917 619.365 111.25C629.865 97.4167 646.199 90.5 668.365 90.5C690.532 90.5 706.865 97.4167 717.365 111.25C728.032 125.083 733.365 144.333 733.365 169V190.5H682.865V162.5C682.865 154.833 681.865 148.417 679.865 143.25C677.865 138.083 674.032 135.5 668.365 135.5C662.699 135.5 658.949 138.167 657.115 143.5C655.282 148.667 654.365 155 654.365 162.5V299.75C654.365 307.25 655.282 313.667 657.115 319C658.949 324.167 662.699 326.75 668.365 326.75C674.032 326.75 677.865 324.167 679.865 319C681.865 313.833 682.865 307.417 682.865 299.75V271.75H733.365V293.25C733.365 317.917 728.032 337.167 717.365 351C706.865 364.833 690.532 371.75 668.365 371.75ZM816.779 372C800.946 372 788.863 368.5 780.529 361.5C772.196 354.5 766.446 344.5 763.279 331.5C760.279 318.5 758.779 303 758.779 285V140H733.279V94.5H758.779V27H809.279V94.5H844.029V140H809.279V292.25C809.279 302.917 810.863 310.833 814.029 316C817.196 321 822.363 323.5 829.529 323.5C832.696 323.5 835.446 323.25 837.779 322.75C840.279 322.25 842.279 321.667 843.779 321V367.25C840.446 368.583 836.779 369.667 832.779 370.5C828.946 371.5 823.613 372 816.779 372ZM912.002 372C900.169 372 889.835 370 881.002 366C872.169 362 864.835 356.333 859.002 349C853.169 341.5 848.752 332.667 845.752 322.5C842.919 312.333 841.502 301 841.502 288.5H888.502C888.502 299.667 890.252 309.417 893.752 317.75C897.419 325.917 903.502 330 912.002 330C919.335 330 924.085 326.917 926.252 320.75C928.419 314.583 929.502 307.5 929.502 299.5C929.502 290.167 925.835 280.667 918.502 271C911.335 261.167 903.835 252.417 896.002 244.75C882.502 231.417 871.252 218.25 862.252 205.25C853.419 192.25 849.002 177 849.002 159.5C849.002 138.833 854.419 122.167 865.252 109.5C876.085 96.8333 891.502 90.5 911.502 90.5C923.502 90.5 933.585 92.0833 941.752 95.25C950.085 98.4167 956.752 103.167 961.752 109.5C966.752 115.833 970.335 123.583 972.502 132.75C974.835 141.917 976.002 152.5 976.002 164.5H929.002C929.002 155.833 928.085 148.333 926.252 142C924.419 135.667 919.835 132.5 912.502 132.5C906.502 132.5 902.252 135.083 899.752 140.25C897.252 145.25 896.002 151.667 896.002 159.5C896.002 168.667 898.169 176.833 902.502 184C907.002 191 914.419 199.583 924.752 209.75C937.752 222.417 949.585 235.917 960.252 250.25C971.085 264.583 976.502 280.167 976.502 297C976.502 308 975.002 318.083 972.002 327.25C969.169 336.417 964.919 344.333 959.252 351C953.752 357.667 947.002 362.833 939.002 366.5C931.169 370.167 922.169 372 912.002 372Z" fill="#E3E3E3"/>
</svg>
