<svg width="927" height="370" viewBox="0 0 927 370" fill="none" xmlns="http://www.w3.org/2000/svg">
<path d="M72.7461 376C57.4128 376 44.3294 372.583 33.4961 365.75C22.8294 358.75 14.6628 349.25 8.9961 337.25C3.49609 325.25 0.746094 311.667 0.746094 296.5V80C0.746094 65 3.57943 51.5 9.24609 39.5C15.0794 27.5 23.4128 18 34.2461 11C45.0794 3.99998 57.9128 0.499985 72.7461 0.499985C83.9128 0.499985 93.9128 2.58332 102.746 6.74998C111.579 10.9166 119.079 16.6666 125.246 24C131.579 31.1666 136.413 39.5833 139.746 49.25C143.079 58.75 144.746 69 144.746 80V130.5H94.2461V80C94.2461 72.3333 92.6628 65.9166 89.4961 60.75C86.3294 55.5833 81.0794 53 73.7461 53C67.0794 53 62.2461 55.6667 59.2461 61C56.2461 66.3333 54.7461 72.6667 54.7461 80V296.5C54.7461 303.833 56.3294 310.167 59.4961 315.5C62.8294 320.833 67.5794 323.5 73.7461 323.5C81.2461 323.5 86.4961 320.917 89.4961 315.75C92.6628 310.583 94.2461 304.167 94.2461 296.5V246H144.746V296.5C144.746 311.5 141.829 325 135.996 337C130.163 349 121.829 358.5 110.996 365.5C100.329 372.5 87.5794 376 72.7461 376ZM224.695 375.5C204.529 375.5 188.695 368.75 177.195 355.25C165.695 341.583 159.945 324.333 159.945 303.5V166.5C159.945 145.667 165.695 128.5 177.195 115C188.695 101.333 204.529 94.5 224.695 94.5C244.695 94.5 260.445 101.333 271.945 115C283.612 128.5 289.445 145.667 289.445 166.5V303.5C289.445 324.333 283.612 341.583 271.945 355.25C260.445 368.75 244.695 375.5 224.695 375.5ZM224.695 331.5C231.195 331.5 235.695 328.917 238.195 323.75C240.695 318.417 241.945 311.667 241.945 303.5V166.5C241.945 158.167 240.695 151.417 238.195 146.25C235.695 141.083 231.195 138.5 224.695 138.5C218.195 138.5 213.695 141.083 211.195 146.25C208.695 151.417 207.445 158.167 207.445 166.5V303.5C207.445 311.833 208.695 318.583 211.195 323.75C213.695 328.917 218.195 331.5 224.695 331.5ZM299.359 372V98.5H349.859V121.5C355.859 115.667 362.609 109.75 370.109 103.75C377.609 97.5833 384.526 94.5 390.859 94.5C399.193 94.5 406.193 97.1667 411.859 102.5C417.526 107.833 421.776 114.583 424.609 122.75C427.443 130.917 428.859 139.333 428.859 148V372H378.359V158C378.359 152.667 377.443 148.917 375.609 146.75C373.776 144.583 370.693 143.5 366.359 143.5C362.693 143.5 359.526 144.833 356.859 147.5C354.359 150 352.026 153 349.859 156.5V372H299.359ZM511.727 376C495.893 376 483.81 372.5 475.477 365.5C467.143 358.5 461.393 348.5 458.227 335.5C455.227 322.5 453.727 307 453.727 289V144H428.227V98.5H453.727V31H504.227V98.5H538.977V144H504.227V296.25C504.227 306.917 505.81 314.833 508.977 320C512.143 325 517.31 327.5 524.477 327.5C527.643 327.5 530.393 327.25 532.727 326.75C535.227 326.25 537.227 325.667 538.727 325V371.25C535.393 372.583 531.727 373.667 527.727 374.5C523.893 375.5 518.56 376 511.727 376ZM580.699 376C569.033 376 558.949 370.083 550.449 358.25C541.949 346.417 537.699 328.333 537.699 304C537.699 280.5 542.699 261.583 552.699 247.25C562.866 232.917 578.033 220.5 598.199 210C604.533 206.667 609.866 203.667 614.199 201C618.533 198.333 621.199 195.833 622.199 193.5V163.5C622.199 156.667 621.366 150.833 619.699 146C618.199 141 614.366 138.5 608.199 138.5C602.533 138.5 598.699 141.167 596.699 146.5C594.699 151.667 593.699 158.167 593.699 166V179H543.199V167.5C543.199 152.5 546.116 139.583 551.949 128.75C557.949 117.75 566.033 109.333 576.199 103.5C586.533 97.5 598.199 94.5 611.199 94.5C623.699 94.5 634.533 97.4167 643.699 103.25C652.866 108.917 659.949 116.833 664.949 127C670.116 137 672.699 148.5 672.699 161.5V324.5C672.699 336.667 673.033 346.167 673.699 353C674.366 359.667 675.199 366 676.199 372H626.699C624.533 369.333 623.199 365.417 622.699 360.25C622.366 355.083 622.199 351.667 622.199 350H618.699C614.533 357.667 609.199 363.917 602.699 368.75C596.366 373.583 589.033 376 580.699 376ZM601.199 326.5C607.033 326.5 611.949 324.5 615.949 320.5C620.116 316.5 622.199 312.167 622.199 307.5V242.5C610.033 247.667 601.116 255.5 595.449 266C589.949 276.333 587.199 288 587.199 301C587.199 306.667 588.283 312.333 590.449 318C592.616 323.667 596.199 326.5 601.199 326.5ZM750.617 375.75C728.451 375.75 712.117 368.833 701.617 355C691.284 341.167 686.117 321.917 686.117 297.25V173C686.117 148.167 691.284 128.917 701.617 115.25C712.117 101.417 728.451 94.5 750.617 94.5C772.784 94.5 789.117 101.417 799.617 115.25C810.284 129.083 815.617 148.333 815.617 173V194.5H765.117V166.5C765.117 158.833 764.117 152.417 762.117 147.25C760.117 142.083 756.284 139.5 750.617 139.5C744.951 139.5 741.201 142.167 739.367 147.5C737.534 152.667 736.617 159 736.617 166.5V303.75C736.617 311.25 737.534 317.667 739.367 323C741.201 328.167 744.951 330.75 750.617 330.75C756.284 330.75 760.117 328.167 762.117 323C764.117 317.833 765.117 311.417 765.117 303.75V275.75H815.617V297.25C815.617 321.917 810.284 341.167 799.617 355C789.117 368.833 772.784 375.75 750.617 375.75ZM899.031 376C883.198 376 871.115 372.5 862.781 365.5C854.448 358.5 848.698 348.5 845.531 335.5C842.531 322.5 841.031 307 841.031 289V144H815.531V98.5H841.031V31H891.531V98.5H926.281V144H891.531V296.25C891.531 306.917 893.115 314.833 896.281 320C899.448 325 904.615 327.5 911.781 327.5C914.948 327.5 917.698 327.25 920.031 326.75C922.531 326.25 924.531 325.667 926.031 325V371.25C922.698 372.583 919.031 373.667 915.031 374.5C911.198 375.5 905.865 376 899.031 376Z" fill="#E3E3E3"/>
</svg>
