<svg width="80" height="80" viewBox="0 0 80 80" fill="none" xmlns="http://www.w3.org/2000/svg">
<path d="M31.0096 34.3169C32.5973 37.181 34.4273 39.9297 36.8031 42.4362C39.1866 44.9581 42.1506 47.2532 45.9873 49.2139C46.2718 49.3522 46.5409 49.3522 46.7831 49.2561C47.1483 49.1177 47.5212 48.814 47.8864 48.4488C48.1709 48.1643 48.5246 47.7107 48.8937 47.2148C50.3699 45.2734 52.196 42.8629 54.7755 44.0701C54.8332 44.097 54.8755 44.1277 54.9332 44.1508L63.5369 49.0985C63.5638 49.1139 63.5945 49.1408 63.6176 49.1562C64.7517 49.9366 65.2207 51.1399 65.2323 52.5046C65.2323 53.8925 64.7209 55.4533 63.9713 56.7719C62.9794 58.5134 61.5186 59.6667 59.8347 60.4279C58.2316 61.166 56.4479 61.562 54.7333 61.8157C52.0422 62.2117 49.5203 61.958 46.9407 61.166C44.4188 60.3856 41.8777 59.0977 39.102 57.3832L38.8983 57.2524C37.6258 56.4567 36.2495 55.607 34.9001 54.6037C29.9639 50.8746 24.9317 45.4887 21.6524 39.5606C18.9037 34.586 17.4044 29.2154 18.2232 24.0985C18.6769 21.2921 19.8801 18.7395 21.9792 17.0556C23.8091 15.5794 26.2733 14.7721 29.4642 15.0566C29.8294 15.0835 30.1562 15.2949 30.3292 15.6102L35.8458 24.9366C36.6532 25.9823 36.7531 27.0203 36.311 28.0582C35.9458 28.9079 35.2077 29.6921 34.2004 30.4225C33.9044 30.6763 33.5507 30.9338 33.1778 31.2029C31.9438 32.0987 30.5406 33.1328 31.0211 34.3476L31.0096 34.3169Z" fill="#545454"/>
<circle cx="40" cy="40" r="38" stroke="#545454" stroke-width="4"/>
</svg>
