<svg width="79" height="79" viewBox="0 0 79 79" fill="none" xmlns="http://www.w3.org/2000/svg">
<circle cx="39.5" cy="39.5" r="39" stroke="#734C91"/>
<circle cx="39" cy="40" r="30" stroke="#734C91" stroke-width="4"/>
<path d="M39.4507 70C37.4266 70 35.3589 69.3299 33.3538 67.9258C31.338 66.5144 29.4323 64.3907 27.7868 61.6091C26.1433 58.8308 24.8164 55.491 23.9046 51.7699C22.9934 48.051 22.5211 44.0501 22.5211 40C22.5211 35.9499 22.9934 31.949 23.9046 28.2301C24.8164 24.5089 26.1433 21.1692 27.7868 18.3909C29.4323 15.6092 31.338 13.4856 33.3538 12.0741C35.3589 10.6701 37.4266 10 39.4507 10C41.4747 10 43.5425 10.6701 45.5476 12.0742C47.5633 13.4856 49.4691 15.6093 51.1146 18.3909C52.7581 21.1692 54.085 24.509 54.9968 28.2301C55.908 31.949 56.3803 35.9499 56.3803 40C56.3803 44.0501 55.908 48.051 54.9968 51.7699C54.085 55.4911 52.7581 58.8308 51.1146 61.6091C49.4691 64.3908 47.5633 66.5144 45.5476 67.9259C43.5424 69.3299 41.4747 70 39.4507 70L39.4507 70Z" stroke="#734C91" stroke-width="4"/>
<path d="M41.2535 9.8028L41.2535 71.0986L36.7465 71.0986L36.7465 9.8028L41.2535 9.8028Z" fill="#734C91"/>
<rect x="9.70422" y="27.831" width="58.5915" height="3.60563" fill="#734C91"/>
<path d="M9.70422 48.5634H68.2958V52.169H9.70422V48.5634Z" fill="#734C91"/>
</svg>
