<svg width="80" height="80" viewBox="0 0 80 80" fill="none" xmlns="http://www.w3.org/2000/svg">
<path d="M60.5262 22H20.4738C16.9043 22 14 24.9059 14 28.4773V51.5227C14 55.0941 16.9043 58 20.4738 58H60.5262C64.0957 58 67 55.0941 67 51.5227V28.478C67.0007 24.9059 64.0964 22 60.5262 22ZM57.3628 26.2257L40.5 37.0955L23.6372 26.2257H57.3628ZM60.5262 53.775H20.4738C19.2328 53.775 18.2234 52.7644 18.2234 51.5234V28.5977L39.1971 42.0917C39.2252 42.1093 39.2555 42.1213 39.2844 42.1375C39.3146 42.1544 39.3456 42.1706 39.3766 42.1861C39.5392 42.2699 39.7067 42.3375 39.8777 42.3819C39.8953 42.3868 39.9129 42.3889 39.9305 42.3931C40.1185 42.4375 40.3085 42.465 40.4986 42.465H40.5C40.5014 42.465 40.5028 42.465 40.5028 42.465C40.6929 42.465 40.8829 42.4382 41.0709 42.3931C41.0885 42.3889 41.1061 42.3868 41.1237 42.3819C41.2947 42.3375 41.4615 42.2699 41.6248 42.1861C41.6558 42.1706 41.6868 42.1544 41.7171 42.1375C41.7459 42.1213 41.7762 42.1093 41.8043 42.0917L62.778 28.5977V51.5227C62.7773 52.7644 61.7672 53.775 60.5262 53.775Z" fill="#545454"/>
<circle cx="40" cy="40" r="38" stroke="#545454" stroke-width="4"/>
</svg>
