<svg width="877" height="588" viewBox="0 0 877 588" fill="none" xmlns="http://www.w3.org/2000/svg">
<path d="M0.0468773 588V-1.14441e-05H86.4469V588H0.0468773ZM118.828 588V150.4H199.628V187.2C209.228 177.867 220.028 168.4 232.028 158.8C244.028 148.933 255.095 144 265.228 144C278.561 144 289.761 148.267 298.828 156.8C307.895 165.333 314.695 176.133 319.228 189.2C323.761 202.267 326.028 215.733 326.028 229.6V588H245.228V245.6C245.228 237.067 243.761 231.067 240.828 227.6C237.895 224.133 232.961 222.4 226.028 222.4C220.161 222.4 215.095 224.533 210.828 228.8C206.828 232.8 203.095 237.6 199.628 243.2V588H118.828ZM458.616 594.4C433.282 594.4 413.949 588.8 400.616 577.6C387.282 566.4 378.082 550.4 373.016 529.6C368.216 508.8 365.816 484 365.816 455.2V223.2H325.016V150.4H365.816V42.4H446.616V150.4H502.216V223.2H446.616V466.8C446.616 483.867 449.149 496.533 454.216 504.8C459.282 512.8 467.549 516.8 479.016 516.8C484.082 516.8 488.482 516.4 492.216 515.6C496.216 514.8 499.416 513.867 501.816 512.8V586.8C496.482 588.933 490.616 590.667 484.216 592C478.082 593.6 469.549 594.4 458.616 594.4ZM506.172 588V150.4H586.972V199.2C588.572 188.533 593.505 179.067 601.772 170.8C610.039 162.533 620.039 156 631.772 151.2C643.772 146.4 655.772 144 667.772 144V233.6C664.305 232.267 660.572 231.467 656.572 231.2C652.839 230.667 649.105 230.4 645.372 230.4C627.772 230.4 613.639 235.2 602.972 244.8C592.305 254.4 586.972 267.467 586.972 284V588H506.172ZM772.491 593.6C740.224 593.6 714.891 582.8 696.491 561.2C678.091 539.333 668.891 511.733 668.891 478.4V259.2C668.891 225.867 678.091 198.4 696.491 176.8C714.891 154.933 740.224 144 772.491 144C804.491 144 829.691 154.933 848.091 176.8C866.757 198.4 876.091 225.867 876.091 259.2V478.4C876.091 511.733 866.757 539.333 848.091 561.2C829.691 582.8 804.491 593.6 772.491 593.6ZM772.491 523.2C782.891 523.2 790.091 519.067 794.091 510.8C798.091 502.267 800.091 491.467 800.091 478.4V259.2C800.091 245.867 798.091 235.067 794.091 226.8C790.091 218.533 782.891 214.4 772.491 214.4C762.091 214.4 754.891 218.533 750.891 226.8C746.891 235.067 744.891 245.867 744.891 259.2V478.4C744.891 491.733 746.891 502.533 750.891 510.8C754.891 519.067 762.091 523.2 772.491 523.2Z" fill="#E3E3E3"/>
</svg>
