<svg width="1011" height="593" viewBox="0 0 1011 593" fill="none" xmlns="http://www.w3.org/2000/svg">
<path d="M122.031 601.4C98.2979 601.4 78.5646 597.533 62.8313 589.8C47.0979 581.8 34.6979 570.333 25.6313 555.4C16.5646 540.467 10.0313 522.467 6.03125 501.4C2.29792 480.333 0.431251 456.6 0.431251 430.2L85.2313 422.2C85.2313 435 85.6313 447.4 86.4313 459.4C87.4979 471.133 89.2313 481.8 91.6312 491.4C94.2979 500.733 98.0313 508.2 102.831 513.8C107.898 519.4 114.298 522.2 122.031 522.2C134.831 522.2 143.898 516.333 149.231 504.6C154.565 492.6 157.231 478.2 157.231 461.4C157.231 444.6 152.831 427.133 144.031 409C135.231 390.867 124.698 373.667 112.431 357.4C91.6313 329.667 73.3646 303.933 57.6313 280.2C42.1646 256.467 30.0313 233.133 21.2313 210.2C12.6979 187.267 8.43125 163.267 8.43125 138.2C8.43125 118.467 10.9646 100.333 16.0313 83.8C21.0979 67 28.4313 52.4666 38.0313 40.2C47.8979 27.6667 59.7646 17.9333 73.6313 11C87.4979 4.06665 103.365 0.599976 121.231 0.599976C143.365 0.599976 162.031 4.33331 177.231 11.8C192.698 19.2666 205.098 29.9333 214.431 43.8C224.031 57.6666 230.965 74.2 235.231 93.4C239.765 112.333 242.031 133.4 242.031 156.6L157.231 164.6C157.231 154.733 156.698 144.867 155.631 135C154.831 124.867 153.231 115.667 150.831 107.4C148.431 99.1333 144.965 92.4667 140.431 87.4C135.898 82.3333 130.031 79.8 122.831 79.8C111.631 79.8 103.898 84.6 99.6313 94.2C95.3646 103.533 93.2313 116.867 93.2313 134.2C93.2313 156.6 99.2313 178.2 111.231 199C123.231 219.8 139.365 244.067 159.631 271.8C183.898 304.6 203.631 334.733 218.831 362.2C234.298 389.667 242.031 420.067 242.031 453.4C242.031 474.467 239.765 494.067 235.231 512.2C230.698 530.067 223.498 545.667 213.631 559C204.031 572.333 191.631 582.733 176.431 590.2C161.498 597.667 143.365 601.4 122.031 601.4ZM256.344 595V6.99999H337.144V271.8V286.2H341.144L345.944 271.8L385.144 157.4H461.944L399.544 299.8L473.144 595H391.544L351.544 418.2L350.744 411.8H349.944L337.144 443.8V595H256.344ZM483.313 595V157.4H564.113V595H483.313ZM483.313 87.8V6.99999H564.113V87.8H483.313ZM592.219 595V6.99999H673.019V595H592.219ZM701.125 595V6.99999H781.925V595H701.125ZM906.925 601.4C887.992 601.4 871.458 598.2 857.325 591.8C843.192 585.4 831.458 576.333 822.125 564.6C812.792 552.6 805.725 538.467 800.925 522.2C796.392 505.933 794.125 487.8 794.125 467.8H869.325C869.325 485.667 872.125 501.267 877.725 514.6C883.592 527.667 893.325 534.2 906.925 534.2C918.658 534.2 926.258 529.267 929.725 519.4C933.192 509.533 934.925 498.2 934.925 485.4C934.925 470.467 929.058 455.267 917.325 439.8C905.858 424.067 893.858 410.067 881.325 397.8C859.725 376.467 841.725 355.4 827.325 334.6C813.192 313.8 806.125 289.4 806.125 261.4C806.125 228.333 814.792 201.667 832.125 181.4C849.458 161.133 874.125 151 906.125 151C925.325 151 941.458 153.533 954.525 158.6C967.858 163.667 978.525 171.267 986.525 181.4C994.525 191.533 1000.26 203.933 1003.73 218.6C1007.46 233.267 1009.33 250.2 1009.33 269.4H934.125C934.125 255.533 932.658 243.533 929.725 233.4C926.792 223.267 919.458 218.2 907.725 218.2C898.125 218.2 891.325 222.333 887.325 230.6C883.325 238.6 881.325 248.867 881.325 261.4C881.325 276.067 884.792 289.133 891.725 300.6C898.925 311.8 910.792 325.533 927.325 341.8C948.125 362.067 967.058 383.667 984.125 406.6C1001.46 429.533 1010.13 454.467 1010.13 481.4C1010.13 499 1007.73 515.133 1002.93 529.8C998.392 544.467 991.592 557.133 982.525 567.8C973.725 578.467 962.925 586.733 950.125 592.6C937.592 598.467 923.192 601.4 906.925 601.4Z" fill="#E3E3E3"/>
</svg>
