<svg width="79" height="79" viewBox="0 0 79 79" fill="none" xmlns="http://www.w3.org/2000/svg">
<circle cx="39.5" cy="39.5" r="39" stroke="#734C91"/>
<g clip-path="url(#clip0_607_484)">
<path d="M39 39.5C39 37.2457 39.8955 35.0837 41.4896 33.4896C43.0837 31.8955 45.2457 31 47.5 31C49.7543 31 51.9163 31.8955 53.5104 33.4896C55.1045 35.0837 56 37.2457 56 39.5C56 41.7543 55.1045 43.9163 53.5104 45.5104C51.9163 47.1045 49.7543 48 47.5 48C45.2457 48 43.0837 47.1045 41.4896 45.5104C39.8955 43.9163 39 41.7543 39 39.5Z" fill="#734C91"/>
<path d="M22 56.5C22 54.2457 22.8955 52.0837 24.4896 50.4896C26.0837 48.8955 28.2457 48 30.5 48H39V56.5C39 58.7543 38.1045 60.9163 36.5104 62.5104C34.9163 64.1045 32.7543 65 30.5 65C28.2457 65 26.0837 64.1045 24.4896 62.5104C22.8955 60.9163 22 58.7543 22 56.5Z" fill="#734C91"/>
<path d="M39 14V31H47.5C49.7543 31 51.9163 30.1045 53.5104 28.5104C55.1045 26.9163 56 24.7543 56 22.5C56 20.2457 55.1045 18.0837 53.5104 16.4896C51.9163 14.8955 49.7543 14 47.5 14H39Z" fill="#734C91"/>
<path d="M22 22.5C22 24.7543 22.8955 26.9163 24.4896 28.5104C26.0837 30.1045 28.2457 31 30.5 31H39V14H30.5C28.2457 14 26.0837 14.8955 24.4896 16.4896C22.8955 18.0837 22 20.2457 22 22.5Z" fill="#734C91"/>
<path d="M22 39.5C22 41.7543 22.8955 43.9163 24.4896 45.5104C26.0837 47.1045 28.2457 48 30.5 48H39V31H30.5C28.2457 31 26.0837 31.8955 24.4896 33.4896C22.8955 35.0837 22 37.2457 22 39.5Z" fill="#734C91"/>
</g>
<defs>
<clipPath id="clip0_607_484">
<rect width="34" height="51" fill="white" transform="translate(22 14)"/>
</clipPath>
</defs>
</svg>
