<svg width="79" height="79" viewBox="0 0 79 79" fill="none" xmlns="http://www.w3.org/2000/svg">
<path fill-rule="evenodd" clip-rule="evenodd" d="M39.5 79C61.3152 79 79 61.3152 79 39.5C79 17.6848 61.3152 0 39.5 0C17.6848 0 0 17.6848 0 39.5C0 61.3152 17.6848 79 39.5 79ZM1 39.5C1 18.2376 18.2376 1 39.5 1C60.7624 1 78 18.2376 78 39.5C78 56.7371 66.6685 71.3197 51.05 76.226V63.5625C51.05 60.1019 49.6107 57.0175 47.2 54.9C56.2283 53.0949 62.6 47.9167 62.6 39.5C62.6 35.2413 60.9208 31.3188 58.1103 28.1307C58.3532 27.3799 58.75 25.64 58.75 22.6562C58.75 20.8275 58.6271 18.5827 57.7875 16.4C57.7875 16.4 52.2968 16.4385 47.1186 21.3428C44.7286 20.6468 42.1713 20.25 39.5 20.25C36.8287 20.25 34.2714 20.6468 31.8814 21.3428C26.7032 16.4385 21.2125 16.4 21.2125 16.4C20.3773 18.5827 20.25 20.8275 20.25 22.6562C20.25 25.4238 20.7431 27.1223 21.0393 27.9618C18.1399 31.1796 16.4 35.1643 16.4 39.5C16.4 47.9167 22.7718 53.0949 31.8 54.9C29.7713 56.6828 28.5275 59.1735 28.1307 61.9692C27.2718 62.3838 26.025 62.6 24.5812 62.6C23.4218 62.6 21.1696 62.0521 19.0713 58.7841C18.2243 57.4603 16.4 54.9 13.9938 54.9C13.9767 54.9 13.9589 54.9 13.9405 54.8999C13.4537 54.8989 12.5357 54.8968 12.55 55.5974C12.5538 55.7749 12.695 55.8622 12.9845 56.0412C13.2603 56.2118 13.6706 56.4655 14.2248 56.9598C15.1754 57.8112 16.0609 59.2046 16.4 60.675C16.9583 63.0887 19.1957 67.8938 24.5812 67.8938C26.5062 67.8938 27.95 67.4125 27.95 67.4125V76.226C12.3315 71.3197 1 56.7371 1 39.5ZM27.95 76.226V76.2334C28.8029 76.5 29.6721 76.7339 30.5488 76.9427C29.6705 76.7335 28.8038 76.4942 27.95 76.226ZM51.05 76.226C50.1962 76.4942 49.3295 76.7335 48.4512 76.9427C49.3293 76.7339 50.1971 76.5015 51.05 76.2334V76.226ZM42.1846 77.8964C41.2976 77.9585 40.4033 78 39.5 78C40.4033 78 41.2962 77.9571 42.1846 77.8964ZM36.8154 77.8964C37.7038 77.9571 38.5967 78 39.5 78C38.5967 78 37.7024 77.9585 36.8154 77.8964Z" fill="#734C91"/>
</svg>
